HIERARCHY
ROOT Hips
{
	OFFSET -0.001795 -0.223333 0.028219
	CHANNELS 6 Xposition Yposition Zposition Zrotation Yrotation Xrotation 
	JOINT LeftUpLeg
	{
		OFFSET 0.069520 -0.091406 -0.006815
		CHANNELS 3 Zrotation Yrotation Xrotation
		JOINT LeftLeg
		{
			OFFSET 0.034277 -0.375199 -0.004496
			CHANNELS 3 Zrotation Yrotation Xrotation
			JOINT LeftFoot
			{
				OFFSET -0.013596 -0.397961 -0.043693
				CHANNELS 3 Zrotation Yrotation Xrotation
				JOINT LeftToe
				{
					OFFSET 0.026358 -0.055791 0.119288
					CHANNELS 3 Zrotation Yrotation Xrotation
					End Site
					{
						OFFSET 0.000000 0.000000 0.000000
					}
				}
			}
		}
	}
	JOINT RightUpLeg
	{
		OFFSET -0.067670 -0.090522 -0.004320
		CHANNELS 3 Zrotation Yrotation Xrotation
		JOINT RightLeg
		{
			OFFSET -0.038290 -0.382569 -0.008850
			CHANNELS 3 Zrotation Yrotation Xrotation
			JOINT RightFoot
			{
				OFFSET 0.015774 -0.398415 -0.042312
				CHANNELS 3 Zrotation Yrotation Xrotation
				JOINT RightToe
				{
					OFFSET -0.025372 -0.048144 0.123348
					CHANNELS 3 Zrotation Yrotation Xrotation
					End Site
					{
						OFFSET 0.000000 0.000000 0.000000
					}
				}
			}
		}
	}
	JOINT Spine
	{
		OFFSET -0.002533 0.108963 -0.026696
		CHANNELS 3 Zrotation Yrotation Xrotation
		JOINT Spine1
		{
			OFFSET 0.005487 0.135180 0.001092
			CHANNELS 3 Zrotation Yrotation Xrotation
			JOINT Spine2
			{
				OFFSET 0.001457 0.052922 0.025425
				CHANNELS 3 Zrotation Yrotation Xrotation
				JOINT Neck
				{
					OFFSET -0.002778 0.213870 -0.042857
					CHANNELS 3 Zrotation Yrotation Xrotation
					JOINT Head
					{
						OFFSET 0.005152 0.064970 0.051349
						CHANNELS 3 Zrotation Yrotation Xrotation
						End Site
						{
							OFFSET 0.000000 0.000000 0.000000
						}
					}
				}
				JOINT LeftShoulder
				{
					OFFSET 0.078845 0.121749 -0.034090
					CHANNELS 3 Zrotation Yrotation Xrotation
					JOINT LeftArm
					{
						OFFSET 0.090977 0.030469 -0.008868
						CHANNELS 3 Zrotation Yrotation Xrotation
						JOINT LeftForeArm
						{
							OFFSET 0.259612 -0.012772 -0.027456
							CHANNELS 3 Zrotation Yrotation Xrotation
							JOINT LeftHand
							{
								OFFSET 0.249234 0.008986 -0.001171
								CHANNELS 3 Zrotation Yrotation Xrotation
								End Site
								{
									OFFSET 0.000000 0.000000 0.000000
								}
							}
						}
					}
				}
				JOINT RightShoulder
				{
					OFFSET -0.081759 0.118833 -0.038615
					CHANNELS 3 Zrotation Yrotation Xrotation
					JOINT RightArm
					{
						OFFSET -0.096012 0.032551 -0.009143
						CHANNELS 3 Zrotation Yrotation Xrotation
						JOINT RightForeArm
						{
							OFFSET -0.253742 -0.013329 -0.021401
							CHANNELS 3 Zrotation Yrotation Xrotation
							JOINT RightHand
							{
								OFFSET -0.255298 0.007772 -0.005559
								CHANNELS 3 Zrotation Yrotation Xrotation
								End Site
								{
									OFFSET 0.000000 0.000000 0.000000
								}
							}
						}
					}
				}
			}
		}
	}
}
MOTION
Frames: 9
Frame Time: 0.050000
0.000000 0.947072 0.000000 -0.196323 -3.255078 3.490255 0.060523 0.057537 0.642273 -0.490487 0.093001 -1.269821 4.350372 10.473279 6.541447 0.000000 0.000000 0.000000 -1.949497 0.594429 -6.303879 -0.648707 0.382720 6.534530 -0.559595 -3.078014 3.290062 0.000000 0.000000 0.000000 5.938093 -0.706554 6.496632 -4.186670 1.523002 -28.414436 -2.484249 4.622751 27.373127 8.863622 -3.324533 -24.993489 0.000000 0.000000 0.000000 4.729632 2.405872 -0.477148 -10.909202 -11.833119 -1.350704 15.430609 0.886488 0.111962 0.000000 0.000000 0.000000 3.816260 -13.356752 -5.464177 13.633125 14.246295 -1.253086 -15.770912 9.848369 -0.604204 0.000000 0.000000 0.000000 
0.000039 0.948505 0.000707 -0.311567 -3.557932 3.871023 0.130522 0.122183 1.352181 -0.432541 0.139808 -3.011044 4.447087 10.659696 6.695019 0.000000 0.000000 0.000000 -2.329771 0.577950 -6.136887 -0.393047 0.275044 5.122971 -0.439454 -3.114817 3.935023 0.000000 0.000000 0.000000 7.016372 -0.821643 6.770193 -4.976082 1.672417 -28.693612 -2.721439 5.009572 26.290444 8.309854 -2.852729 -25.380687 0.000000 0.000000 0.000000 4.232262 2.302782 -0.461791 -11.030572 -12.536387 -1.304584 13.761104 1.138217 0.119685 0.000000 0.000000 0.000000 4.418062 -14.007245 -5.823239 14.243088 13.683217 -1.255818 -15.828465 11.731603 -0.791934 0.000000 0.000000 0.000000 
-0.000537 0.947645 0.001172 -0.122325 -4.290616 3.461439 0.443668 0.151344 1.743872 -1.009357 0.169170 -2.101046 5.529012 12.644897 7.294367 0.000000 0.000000 0.000000 -2.895647 0.611574 -6.656627 0.290832 0.252562 6.756395 -0.079991 -2.029099 3.337108 0.000000 0.000000 0.000000 7.331294 -0.887964 7.355525 -4.848041 1.646731 -29.390369 -2.918667 6.042352 27.589112 8.803135 -3.064544 -25.527734 0.000000 0.000000 0.000000 4.729451 2.018950 -0.319426 -13.322705 -12.495189 -1.431779 14.788147 0.706661 0.079604 0.000000 0.000000 0.000000 5.743571 -14.651713 -6.286618 14.796177 15.654957 -1.213973 -17.544424 9.769757 -0.645098 0.000000 0.000000 0.000000 
-0.001897 0.947121 0.001736 0.005668 -4.623759 3.114250 0.055505 0.209201 2.221434 -0.798002 0.129259 -1.367005 5.800976 13.013544 6.276771 0.000000 0.000000 0.000000 -2.915863 0.663903 -7.344457 -0.152583 0.352071 7.323028 0.028555 -1.878936 3.501531 0.000000 0.000000 0.000000 7.529766 -0.980783 8.236483 -4.723588 1.618093 -30.157803 -3.682358 5.884837 28.095828 8.281563 -2.841533 -25.484893 0.000000 0.000000 0.000000 4.479482 1.887717 -0.326002 -16.012630 -12.368825 -1.608814 15.824648 0.877691 0.125627 0.000000 0.000000 0.000000 6.460072 -14.685504 -6.434141 15.215064 16.349855 -1.187028 -17.312935 10.492904 -0.729677 0.000000 0.000000 0.000000 
-0.003975 0.946166 0.002043 0.152335 -4.182053 2.619457 0.421336 0.218427 2.446660 -0.924129 0.115696 -0.302249 5.720995 12.894207 6.378060 0.000000 0.000000 0.000000 -3.277936 0.666961 -7.583108 0.082291 0.370135 8.561570 -0.627160 -3.240148 3.213942 0.000000 0.000000 0.000000 7.513332 -1.029156 8.820235 -4.430469 1.565139 -29.971182 -4.046607 5.955809 27.940675 8.496696 -2.893393 -25.606389 0.000000 0.000000 0.000000 3.592018 0.923313 -0.070002 -17.212924 -12.253945 -1.672972 15.606795 -0.244948 0.000674 0.000000 0.000000 0.000000 7.029602 -14.352915 -6.353456 16.917667 16.093211 -1.214431 -18.412395 11.141479 -0.844150 0.000000 0.000000 0.000000 
-0.006510 0.944684 0.001923 0.242863 -3.687248 2.217197 0.464785 0.178070 2.030375 -0.828581 0.057755 1.571595 5.965417 13.185356 4.891372 0.000000 0.000000 0.000000 -3.566357 0.672888 -7.871975 0.016971 0.444106 9.954475 -1.030409 -3.736389 2.293068 0.000000 0.000000 0.000000 7.661054 -1.117681 9.609886 -4.775188 1.634081 -29.670476 -4.216973 5.180276 27.792194 8.022704 -2.604172 -26.122506 0.000000 0.000000 0.000000 2.877307 0.967185 -0.146372 -19.628662 -12.413393 -1.790297 15.409028 -0.921324 -0.041105 0.000000 0.000000 0.000000 7.696174 -14.116017 -6.380110 18.819001 16.763639 -1.132888 -18.719322 11.304609 -0.883823 0.000000 0.000000 0.000000 
-0.009121 0.942623 0.000586 0.263693 -3.277694 1.705230 0.723036 0.081939 1.029440 -1.127772 0.041177 4.190061 6.128422 13.334504 3.513678 0.000000 0.000000 0.000000 -3.479964 0.695977 -8.255235 0.184333 0.478860 11.460925 -1.365833 -4.133527 1.427161 0.000000 0.000000 0.000000 7.728663 -1.216258 10.591884 -4.646527 1.617996 -29.143146 -4.439090 5.361690 27.602437 8.002620 -2.546818 -25.902775 0.000000 0.000000 0.000000 1.230976 0.440683 -0.080636 -20.822953 -12.366416 -1.847085 15.594854 -1.563572 -0.119245 0.000000 0.000000 0.000000 8.887115 -14.107191 -6.529208 20.179913 17.212058 -1.092685 -19.588008 11.975920 -0.987405 0.000000 0.000000 0.000000 
-0.011436 0.940246 -0.002474 0.146618 -2.301632 0.950333 1.485351 -0.076999 -0.770599 -2.243627 0.154653 9.118139 6.504828 13.741379 1.017516 0.000000 0.000000 0.000000 -3.407436 0.733683 -8.926639 0.022691 0.596291 13.586229 -1.786328 -4.771932 0.566551 0.000000 0.000000 0.000000 8.158730 -1.446775 12.379794 -5.011715 1.702776 -28.885328 -4.393354 4.753552 27.478645 8.564282 -2.780632 -26.644707 0.000000 0.000000 0.000000 -0.427344 0.405157 -0.192917 -22.595387 -12.757131 -1.889865 16.005281 -3.163543 -0.288581 0.000000 0.000000 0.000000 9.972800 -13.994426 -6.638091 21.497027 17.833456 -1.021535 -20.793622 12.161258 -1.071750 0.000000 0.000000 0.000000 
-0.012312 0.937844 -0.006737 -0.047204 -1.494686 0.348738 3.225522 -0.253975 -3.496636 -4.886682 0.735907 14.896980 6.621482 13.797159 -0.010833 0.000000 0.000000 0.000000 -3.503973 0.741426 -9.270698 -0.264831 0.688683 14.537972 -1.556177 -4.007285 0.127299 0.000000 0.000000 0.000000 8.323409 -1.668101 14.201064 -4.716727 1.645722 -29.025555 -4.493781 5.161704 27.468793 9.295103 -2.963532 -27.269984 0.000000 0.000000 0.000000 -1.789009 -0.212005 -0.101310 -24.355391 -12.937600 -1.929160 16.432134 -3.894959 -0.405840 0.000000 0.000000 0.000000 11.362926 -13.236614 -6.367581 22.121428 17.911019 -1.066434 -21.781756 12.384967 -1.114799 0.000000 0.000000 0.000000 
